<svg id="visual" viewBox="0 0 900 600" width="900" height="600" xmlns="http://www.w3.org/2000/svg" xmlns:xlink="http://www.w3.org/1999/xlink" version="1.1"><path d="M0 490L129 507L257 498L386 499L514 465L643 490L771 490L900 460L900 601L771 601L643 601L514 601L386 601L257 601L129 601L0 601Z" fill="#871400"></path><path d="M0 484L129 498L257 487L386 498L514 498L643 478L771 476L900 510L900 601L771 601L643 601L514 601L386 601L257 601L129 601L0 601Z" fill="#cc4f08"></path><path d="M0 523L129 516L257 543L386 533L514 511L643 545L771 526L900 503L900 601L771 601L643 601L514 601L386 601L257 601L129 601L0 601Z" fill="#f5730a"></path><path d="M0 563L129 532L257 545L386 549L514 537L643 545L771 552L900 529L900 601L771 601L643 601L514 601L386 601L257 601L129 601L0 601Z" fill="#cc4f08"></path><path d="M0 576L129 557L257 566L386 574L514 577L643 584L771 572L900 571L900 601L771 601L643 601L514 601L386 601L257 601L129 601L0 601Z" fill="#871400"></path></svg>