<svg id="visual" viewBox="0 0 900 600" width="900" height="600" xmlns="http://www.w3.org/2000/svg" xmlns:xlink="http://www.w3.org/1999/xlink" version="1.1"><path d="M0 407L180 378L360 428L540 380L720 389L900 380L900 601L720 601L540 601L360 601L180 601L0 601Z" fill="#871400"></path><path d="M0 466L180 406L360 462L540 432L720 433L900 410L900 601L720 601L540 601L360 601L180 601L0 601Z" fill="#9d2804"></path><path d="M0 442L180 456L360 450L540 444L720 461L900 429L900 601L720 601L540 601L360 601L180 601L0 601Z" fill="#b33b06"></path><path d="M0 478L180 470L360 520L540 499L720 467L900 517L900 601L720 601L540 601L360 601L180 601L0 601Z" fill="#c94d08"></path><path d="M0 536L180 499L360 531L540 544L720 507L900 520L900 601L720 601L540 601L360 601L180 601L0 601Z" fill="#df6009"></path><path d="M0 557L180 572L360 554L540 544L720 565L900 546L900 601L720 601L540 601L360 601L180 601L0 601Z" fill="#f5730a"></path></svg>