<svg id="visual" viewBox="0 0 900 600" width="900" height="600" xmlns="http://www.w3.org/2000/svg" xmlns:xlink="http://www.w3.org/1999/xlink" version="1.1"><path d="M0 483L180 466L360 484L540 451L720 509L900 509L900 601L720 601L540 601L360 601L180 601L0 601Z" fill="#f5730a"></path><path d="M0 491L180 510L360 488L540 501L720 487L900 534L900 601L720 601L540 601L360 601L180 601L0 601Z" fill="#d15308"></path><path d="M0 532L180 521L360 523L540 528L720 556L900 554L900 601L720 601L540 601L360 601L180 601L0 601Z" fill="#ac3505"></path><path d="M0 570L180 577L360 558L540 554L720 566L900 549L900 601L720 601L540 601L360 601L180 601L0 601Z" fill="#871400"></path></svg>